<svg width="256" height="131" viewBox="0 0 256 131" fill="none" xmlns="http://www.w3.org/2000/svg">
<rect width="256" height="131" fill="#121212"/>
<path d="M34.779 105.863L34.8044 107.823C34.7366 109.062 34.5839 110.105 34.3463 110.953C34.1088 111.802 33.6422 112.574 32.9466 113.269C31.7929 114.423 30.1132 115 27.9075 115C25.3116 115 23.5301 114.661 22.563 113.982C21.5959 113.286 21.1123 112.039 21.1123 110.241V96.8796H28.162C30.198 96.8796 31.7929 97.4565 32.9466 98.6102C33.8798 99.5434 34.4312 100.68 34.6008 102.021C34.7196 102.971 34.779 104.252 34.779 105.863ZM30.4779 110.724C30.8003 110.334 31.0039 109.8 31.0887 109.121C31.1905 108.425 31.2414 107.348 31.2414 105.889C31.2414 104.43 31.1905 103.378 31.0887 102.733C31.0039 102.071 30.8003 101.545 30.4779 101.155C29.8671 100.409 28.9849 100.035 27.8311 100.035H24.6499V110.063C24.6499 110.741 24.8789 111.208 25.337 111.462C25.7951 111.717 26.6095 111.844 27.7802 111.844C28.9679 111.844 29.8671 111.471 30.4779 110.724ZM40.5353 115H36.9977V96.8796H40.5353V115ZM55.7973 100.035H49.4093C48.6628 100.035 48.1368 100.18 47.8314 100.468C47.543 100.756 47.3988 101.257 47.3988 101.97V104.489H54.0412L53.7867 107.645H47.3988V115H43.8612V100.57C43.8612 99.2295 44.1497 98.2794 44.7265 97.7195C45.3204 97.1596 46.3299 96.8796 47.7551 96.8796H55.7973V100.035ZM69.9181 100.035H63.5301C62.7836 100.035 62.2576 100.18 61.9522 100.468C61.6638 100.756 61.5196 101.257 61.5196 101.97V104.489H68.162L67.9075 107.645H61.5196V115H57.982V100.57C57.982 99.2295 58.2704 98.2794 58.8473 97.7195C59.4411 97.1596 60.4507 96.8796 61.8759 96.8796H69.9181V100.035ZM85.4131 96.8796V108.79C85.4131 110.758 84.7429 112.311 83.4026 113.448C82.0792 114.584 80.4419 115.153 78.4907 115.153C76.5396 115.153 74.8938 114.584 73.5534 113.448C72.23 112.311 71.5683 110.758 71.5683 108.79V96.8796H75.1059V108.663C75.1059 109.783 75.4113 110.623 76.0221 111.183C76.6498 111.725 77.4727 111.997 78.4907 111.997C79.5087 111.997 80.3316 111.725 80.9594 111.183C81.5871 110.623 81.901 109.783 81.901 108.663V96.8796H85.4131ZM100.428 109.656C100.428 111.369 99.8 112.718 98.5445 113.702C97.289 114.669 95.6856 115.153 93.7345 115.153C92.1905 115.153 90.6974 114.729 89.2553 113.88C88.5427 113.439 87.9573 112.82 87.4992 112.022C87.0411 111.208 86.8121 110.283 86.8121 109.248L90.0188 109.096C90.0188 110.012 90.409 110.724 91.1895 111.233C91.9699 111.742 92.8352 111.997 93.7854 111.997C95.9062 111.997 96.9666 111.25 96.9666 109.757C96.9666 108.536 96.2455 107.815 94.8034 107.594L91.8512 107.289C90.3751 107.068 89.2044 106.542 88.3391 105.711C87.4738 104.879 87.0411 103.683 87.0411 102.122C87.0411 100.561 87.6604 99.2719 88.899 98.2539C90.1375 97.2359 91.6985 96.7269 93.5818 96.7269C95.482 96.7269 97.009 97.2105 98.1628 98.1776C99.3165 99.1277 99.8934 100.358 99.8934 101.868L96.7376 102.021C96.4491 100.544 95.4566 99.8064 93.7599 99.8064C92.725 99.8064 91.9106 100.027 91.3167 100.468C90.7399 100.909 90.4514 101.435 90.4514 102.046C90.4514 102.64 90.6635 103.115 91.0877 103.471C91.5118 103.81 92.0378 104.023 92.6656 104.107L95.5669 104.413C98.8075 104.854 100.428 106.602 100.428 109.656ZM105.895 115H102.357V96.8796H105.895V115ZM122.506 105.1V106.474C122.506 109.511 121.929 111.717 120.775 113.091C119.639 114.466 117.806 115.153 115.278 115.153C112.75 115.153 110.918 114.466 109.781 113.091C108.661 111.717 108.101 109.486 108.101 106.398V105.075C108.101 102.258 108.67 100.163 109.806 98.7884C110.96 97.4141 112.775 96.7269 115.253 96.7269C117.747 96.7269 119.579 97.4225 120.75 98.8138C121.921 100.205 122.506 102.3 122.506 105.1ZM118.968 106.398V105.456C118.968 103.827 118.765 102.53 118.358 101.562C117.882 100.443 116.864 99.8827 115.304 99.8827C113.726 99.8827 112.699 100.443 112.224 101.562C111.834 102.479 111.639 103.777 111.639 105.456V106.398C111.639 108.587 111.944 110.063 112.555 110.826C112.792 111.149 113.14 111.429 113.598 111.666C114.073 111.887 114.633 111.997 115.278 111.997C115.94 111.997 116.5 111.887 116.958 111.666C117.416 111.445 117.772 111.174 118.027 110.852C118.281 110.529 118.476 110.105 118.612 109.579C118.85 108.748 118.968 107.687 118.968 106.398ZM138.833 96.8796V113.168C138.833 113.728 138.664 114.211 138.324 114.618C137.985 115.008 137.586 115.204 137.128 115.204C135.958 115.204 134.999 114.525 134.252 113.168L127.992 103.369V115H124.454V96.8796H127.864L135.296 108.739V96.8796H138.833ZM160.304 105.863L160.33 107.823C160.262 109.062 160.109 110.105 159.871 110.953C159.634 111.802 159.167 112.574 158.472 113.269C157.318 114.423 155.638 115 153.433 115C150.837 115 149.055 114.661 148.088 113.982C147.121 113.286 146.637 112.039 146.637 110.241V96.8796H153.687C155.723 96.8796 157.318 97.4565 158.472 98.6102C159.405 99.5434 159.956 100.68 160.126 102.021C160.245 102.971 160.304 104.252 160.304 105.863ZM156.003 110.724C156.325 110.334 156.529 109.8 156.614 109.121C156.716 108.425 156.767 107.348 156.767 105.889C156.767 104.43 156.716 103.378 156.614 102.733C156.529 102.071 156.325 101.545 156.003 101.155C155.392 100.409 154.51 100.035 153.356 100.035H150.175V110.063C150.175 110.741 150.404 111.208 150.862 111.462C151.32 111.717 152.135 111.844 153.305 111.844C154.493 111.844 155.392 111.471 156.003 110.724ZM175.808 105.1V106.474C175.808 109.511 175.231 111.717 174.077 113.091C172.94 114.466 171.108 115.153 168.58 115.153C166.052 115.153 164.219 114.466 163.083 113.091C161.963 111.717 161.403 109.486 161.403 106.398V105.075C161.403 102.258 161.971 100.163 163.108 98.7884C164.262 97.4141 166.077 96.7269 168.554 96.7269C171.049 96.7269 172.881 97.4225 174.052 98.8138C175.222 100.205 175.808 102.3 175.808 105.1ZM172.27 106.398V105.456C172.27 103.827 172.067 102.53 171.659 101.562C171.184 100.443 170.166 99.8827 168.605 99.8827C167.027 99.8827 166.001 100.443 165.526 101.562C165.136 102.479 164.941 103.777 164.941 105.456V106.398C164.941 108.587 165.246 110.063 165.857 110.826C166.094 111.149 166.442 111.429 166.9 111.666C167.375 111.887 167.935 111.997 168.58 111.997C169.242 111.997 169.801 111.887 170.26 111.666C170.718 111.445 171.074 111.174 171.328 110.852C171.583 110.529 171.778 110.105 171.914 109.579C172.151 108.748 172.27 107.687 172.27 106.398ZM187.172 107.976H190.456C190.456 110.283 189.879 112.056 188.725 113.295C187.571 114.533 185.942 115.153 183.839 115.153C179.207 115.153 176.891 112.43 176.891 106.983V105.456C176.891 101.164 178.078 98.4745 180.454 97.3886C181.387 96.9475 182.515 96.7269 183.839 96.7269C185.773 96.7269 187.342 97.2614 188.547 98.3303C189.768 99.3822 190.379 100.909 190.379 102.911H187.071C186.884 101.91 186.553 101.155 186.078 100.646C185.603 100.137 184.857 99.8827 183.839 99.8827C182.651 99.8827 181.769 100.256 181.192 101.003C180.785 101.528 180.547 102.428 180.479 103.7C180.445 104.107 180.428 104.659 180.428 105.354V106.932C180.428 108.884 180.7 110.215 181.243 110.928C181.803 111.641 182.668 111.997 183.839 111.997C185.026 111.997 185.841 111.675 186.282 111.03C186.74 110.368 187.037 109.35 187.172 107.976ZM204.362 100.035H199.501V115H195.963V100.035H191.128V96.8796H204.362V100.035ZM219.512 105.1V106.474C219.512 109.511 218.935 111.717 217.781 113.091C216.645 114.466 214.812 115.153 212.284 115.153C209.756 115.153 207.924 114.466 206.787 113.091C205.667 111.717 205.107 109.486 205.107 106.398V105.075C205.107 102.258 205.676 100.163 206.813 98.7884C207.966 97.4141 209.782 96.7269 212.259 96.7269C214.753 96.7269 216.585 97.4225 217.756 98.8138C218.927 100.205 219.512 102.3 219.512 105.1ZM215.974 106.398V105.456C215.974 103.827 215.771 102.53 215.364 101.562C214.889 100.443 213.871 99.8827 212.31 99.8827C210.732 99.8827 209.705 100.443 209.23 101.562C208.84 102.479 208.645 103.777 208.645 105.456V106.398C208.645 108.587 208.95 110.063 209.561 110.826C209.799 111.149 210.146 111.429 210.605 111.666C211.08 111.887 211.64 111.997 212.284 111.997C212.946 111.997 213.506 111.887 213.964 111.666C214.422 111.445 214.778 111.174 215.033 110.852C215.287 110.529 215.482 110.105 215.618 109.579C215.856 108.748 215.974 107.687 215.974 106.398ZM235.432 115H231.335L227.797 108.281H225.252V115H221.715V100.773C221.715 99.4161 222.029 98.4321 222.657 97.8213C223.284 97.1935 224.336 96.8796 225.812 96.8796H228.815C230.614 96.8796 232.039 97.431 233.091 98.5339C234.16 99.6197 234.694 101.003 234.694 102.682C234.694 103.904 234.372 104.964 233.727 105.863C233.099 106.746 232.319 107.357 231.386 107.696L235.432 115ZM228.586 105.329C229.333 105.329 229.944 105.075 230.419 104.566C230.911 104.04 231.157 103.395 231.157 102.631C231.157 101.851 230.919 101.223 230.444 100.748C229.986 100.273 229.367 100.035 228.586 100.035H226.83C225.778 100.035 225.252 100.57 225.252 101.639V105.329H228.586Z" fill="white"/>
<rect x="36" y="72" width="48" height="12" rx="2" fill="#8BFFFF"/>
<rect x="48" y="48" width="36" height="12" rx="2" fill="#FF6F6F"/>
<rect x="144" y="24" width="12" height="60" rx="2" fill="#FF9CE9"/>
<rect x="120" y="72" width="12" height="12" rx="2" fill="#FF6F6F"/>
<rect x="96" y="36" width="36" height="12" rx="2" fill="#8BFFFF"/>
<rect x="108" y="12" width="24" height="12" rx="2" fill="#FF6F6F"/>
<rect x="168" y="72" width="24" height="12" rx="2" fill="#8BFFFF"/>
<rect x="168" y="12" width="12" height="48" rx="2" fill="#FF6F6F"/>
<rect x="204" y="60" width="12" height="24" rx="2" fill="#FF9CE9"/>
<rect x="192" y="36" width="12" height="12" rx="2" fill="#8BFFFF"/>
<rect x="96" y="60" width="12" height="24" rx="2" fill="#FF9CE9"/>
</svg>
